<?xml version="1.0" encoding="utf-8" standalone="no"?>
<!DOCTYPE svg PUBLIC "-//W3C//DTD SVG 1.1//EN"
  "http://www.w3.org/Graphics/SVG/1.1/DTD/svg11.dtd">
<svg xmlns:xlink="http://www.w3.org/1999/xlink" width="453.6pt" height="165.60082pt" viewBox="0 0 453.6 165.60082" xmlns="http://www.w3.org/2000/svg" version="1.1">
 <metadata>
  <rdf:RDF xmlns:dc="http://purl.org/dc/elements/1.1/" xmlns:cc="http://creativecommons.org/ns#" xmlns:rdf="http://www.w3.org/1999/02/22-rdf-syntax-ns#">
   <cc:Work>
    <dc:type rdf:resource="http://purl.org/dc/dcmitype/StillImage"/>
    <dc:date>2026-09-24T11:44:48.856554</dc:date>
    <dc:format>image/svg+xml</dc:format>
    <dc:creator>
     <cc:Agent>
      <dc:title>Matplotlib v3.11.2, https://matplotlib.org/</dc:title>
     </cc:Agent>
    </dc:creator>
   </cc:Work>
  </rdf:RDF>
 </metadata>
 <defs>
  <style type="text/css">*{stroke-linejoin: round; stroke-linecap: butt}</style>
 </defs>
 <g id="figure_1">
  <g id="patch_1">
   <path d="M 0 165.60082 
L 453.6 165.60082 
L 453.6 0 
L 0 0 
z
" style="fill: #ffffff"/>
  </g>
  <g id="axes_1">
   <g id="patch_2">
    <path d="M 7.2 141.40082 
L 446.4 141.40082 
L 446.4 21.178359 
L 7.2 21.178359 
z
" style="fill: #ffffff"/>
   </g>
   <g id="FillBetweenPolyCollection_1">
    <defs>
     <path id="m340584b626" d="M 27.163636 -29.664657 
L 27.163636 -29.701323 
L 28.16432 -29.704377 
L 29.165003 -29.707667 
L 30.165687 -29.711212 
L 31.16637 -29.715029 
L 32.167054 -29.719136 
L 33.167738 -29.723555 
L 34.168421 -29.728307 
L 35.169105 -29.733414 
L 36.169788 -29.738902 
L 37.170472 -29.744795 
L 38.171155 -29.751121 
L 39.171839 -29.757909 
L 40.172522 -29.765189 
L 41.173206 -29.772995 
L 42.173889 -29.781359 
L 43.174573 -29.790319 
L 44.175256 -29.799912 
L 45.17594 -29.810179 
L 46.176623 -29.821162 
L 47.177307 -29.832907 
L 48.17799 -29.84546 
L 49.178674 -29.858872 
L 50.179357 -29.873195 
L 51.180041 -29.888484 
L 52.180725 -29.904798 
L 53.181408 -29.922197 
L 54.182092 -29.940746 
L 55.182775 -29.960511 
L 56.183459 -29.981565 
L 57.184142 -30.00398 
L 58.184826 -30.027834 
L 59.185509 -30.053209 
L 60.186193 -30.080191 
L 61.186876 -30.108867 
L 62.18756 -30.139331 
L 63.188243 -30.17168 
L 64.188927 -30.206017 
L 65.18961 -30.242446 
L 66.190294 -30.281079 
L 67.190977 -30.322031 
L 68.191661 -30.365422 
L 69.192344 -30.411377 
L 70.193028 -30.460025 
L 71.193712 -30.511503 
L 72.194395 -30.565949 
L 73.195079 -30.623511 
L 74.195762 -30.684339 
L 75.196446 -30.748589 
L 76.197129 -30.816426 
L 77.197813 -30.888015 
L 78.198496 -30.963533 
L 79.19918 -31.043157 
L 80.199863 -31.127075 
L 81.200547 -31.215478 
L 82.20123 -31.308563 
L 83.201914 -31.406536 
L 84.202597 -31.509606 
L 85.203281 -31.617989 
L 86.203964 -31.731908 
L 87.204648 -31.851591 
L 88.205332 -31.977274 
L 89.206015 -32.109196 
L 90.206699 -32.247606 
L 91.207382 -32.392755 
L 92.208066 -32.544903 
L 93.208749 -32.704314 
L 94.209433 -32.871259 
L 95.210116 -33.046013 
L 96.2108 -33.228857 
L 97.211483 -33.420079 
L 98.212167 -33.61997 
L 99.21285 -33.828825 
L 100.213534 -34.046948 
L 101.214217 -34.274642 
L 102.214901 -34.512217 
L 103.215584 -34.759987 
L 104.216268 -35.018268 
L 105.216951 -35.287381 
L 106.217635 -35.567648 
L 107.218319 -35.859394 
L 108.219002 -36.162946 
L 109.219686 -36.478633 
L 110.220369 -36.806784 
L 111.221053 -37.14773 
L 112.221736 -37.5018 
L 113.22242 -37.869325 
L 114.223103 -38.250632 
L 115.223787 -38.64605 
L 116.22447 -39.055901 
L 117.225154 -39.480509 
L 118.225837 -39.920191 
L 119.226521 -40.375261 
L 120.227204 -40.846027 
L 121.227888 -41.332795 
L 122.228571 -41.835858 
L 123.229255 -42.355509 
L 124.229938 -42.892027 
L 125.230622 -43.445686 
L 126.231306 -44.016749 
L 127.231989 -44.605468 
L 128.232673 -45.212085 
L 129.233356 -45.836828 
L 130.23404 -46.479915 
L 131.234723 -47.141546 
L 132.235407 -47.82191 
L 133.23609 -48.521178 
L 134.236774 -49.239506 
L 135.237457 -49.97703 
L 136.238141 -50.73387 
L 137.238824 -51.510127 
L 138.239508 -52.305879 
L 139.240191 -53.121186 
L 140.240875 -53.956085 
L 141.241558 -54.810591 
L 142.242242 -55.684692 
L 143.242925 -56.578357 
L 144.243609 -57.491527 
L 145.244293 -58.424116 
L 146.244976 -59.376013 
L 147.24566 -60.347079 
L 148.246343 -61.337148 
L 149.247027 -62.346024 
L 150.24771 -63.373482 
L 151.248394 -64.419268 
L 152.249077 -65.483096 
L 153.249761 -66.56465 
L 154.250444 -67.663584 
L 155.251128 -68.779518 
L 156.251811 -69.912041 
L 157.252495 -71.060709 
L 158.253178 -72.225048 
L 159.253862 -73.404549 
L 160.254545 -74.598671 
L 161.255229 -75.80684 
L 162.255913 -77.028448 
L 163.256596 -78.262858 
L 164.25728 -79.509398 
L 165.257963 -80.767364 
L 166.258647 -82.036019 
L 167.25933 -83.314598 
L 168.260014 -84.602302 
L 169.260697 -85.898303 
L 170.261381 -87.201741 
L 171.262064 -88.511731 
L 172.262748 -89.827355 
L 173.263431 -91.14767 
L 174.264115 -92.471707 
L 175.264798 -93.798469 
L 176.265482 -95.126937 
L 177.266165 -96.456067 
L 178.266849 -97.784792 
L 179.267532 -99.112027 
L 180.268216 -100.436665 
L 181.2689 -101.757581 
L 182.269583 -103.073635 
L 183.270267 -104.383669 
L 184.27095 -105.686514 
L 185.271634 -106.980989 
L 186.272317 -108.265901 
L 187.273001 -109.540049 
L 188.273684 -110.802228 
L 189.274368 -112.051224 
L 190.275051 -113.285824 
L 191.275735 -114.504812 
L 192.276418 -115.706972 
L 193.277102 -116.891095 
L 194.277785 -118.055972 
L 195.278469 -119.200405 
L 196.279152 -120.323202 
L 197.279836 -121.423184 
L 198.280519 -122.499185 
L 199.281203 -123.550053 
L 200.281887 -124.574655 
L 201.28257 -125.571875 
L 202.283254 -126.540621 
L 203.283937 -127.479821 
L 204.284621 -128.388431 
L 205.285304 -129.265433 
L 206.285988 -130.109837 
L 207.286671 -130.920687 
L 208.287355 -131.697056 
L 209.288038 -132.438054 
L 210.288722 -133.142826 
L 211.289405 -133.810556 
L 212.290089 -134.440464 
L 213.290772 -135.031816 
L 214.291456 -135.583917 
L 215.292139 -136.096115 
L 216.292823 -136.567806 
L 217.293506 -136.99843 
L 218.29419 -137.387474 
L 219.294874 -137.734475 
L 220.295557 -138.039017 
L 221.296241 -138.300737 
L 222.296924 -138.519319 
L 223.297608 -138.694501 
L 224.298291 -138.826073 
L 225.298975 -138.913876 
L 226.299658 -138.957804 
L 227.300342 -138.957804 
L 228.301025 -138.913876 
L 229.301709 -138.826073 
L 230.302392 -138.694501 
L 231.303076 -138.519319 
L 232.303759 -138.300737 
L 233.304443 -138.039017 
L 234.305126 -137.734475 
L 235.30581 -137.387474 
L 236.306494 -136.99843 
L 237.307177 -136.567806 
L 238.307861 -136.096115 
L 239.308544 -135.583917 
L 240.309228 -135.031816 
L 241.309911 -134.440464 
L 242.310595 -133.810556 
L 243.311278 -133.142826 
L 244.311962 -132.438054 
L 245.312645 -131.697056 
L 246.313329 -130.920687 
L 247.314012 -130.109837 
L 248.314696 -129.265433 
L 249.315379 -128.388431 
L 250.316063 -127.479821 
L 251.316746 -126.540621 
L 252.31743 -125.571875 
L 253.318113 -124.574655 
L 254.318797 -123.550053 
L 255.319481 -122.499185 
L 256.320164 -121.423184 
L 257.320848 -120.323202 
L 258.321531 -119.200405 
L 259.322215 -118.055972 
L 260.322898 -116.891095 
L 261.323582 -115.706972 
L 262.324265 -114.504812 
L 263.324949 -113.285824 
L 264.325632 -112.051224 
L 265.326316 -110.802228 
L 266.326999 -109.540049 
L 267.327683 -108.265901 
L 268.328366 -106.980989 
L 269.32905 -105.686514 
L 270.329733 -104.383669 
L 271.330417 -103.073635 
L 272.3311 -101.757581 
L 273.331784 -100.436665 
L 274.332468 -99.112027 
L 275.333151 -97.784792 
L 276.333835 -96.456067 
L 277.334518 -95.126937 
L 278.335202 -93.798469 
L 279.335885 -92.471707 
L 280.336569 -91.14767 
L 281.337252 -89.827355 
L 282.337936 -88.511731 
L 283.338619 -87.201741 
L 284.339303 -85.898303 
L 285.339986 -84.602302 
L 286.34067 -83.314598 
L 287.341353 -82.036019 
L 288.342037 -80.767364 
L 289.34272 -79.509398 
L 290.343404 -78.262858 
L 291.344087 -77.028448 
L 292.344771 -75.80684 
L 293.345455 -74.598671 
L 294.346138 -73.404549 
L 295.346822 -72.225048 
L 296.347505 -71.060709 
L 297.348189 -69.912041 
L 298.348872 -68.779518 
L 299.349556 -67.663584 
L 300.350239 -66.56465 
L 301.350923 -65.483096 
L 302.351606 -64.419268 
L 303.35229 -63.373482 
L 304.352973 -62.346024 
L 305.353657 -61.337148 
L 306.35434 -60.347079 
L 307.355024 -59.376013 
L 308.355707 -58.424116 
L 309.356391 -57.491527 
L 310.357075 -56.578357 
L 311.357758 -55.684692 
L 312.358442 -54.810591 
L 313.359125 -53.956085 
L 314.359809 -53.121186 
L 315.360492 -52.305879 
L 316.361176 -51.510127 
L 317.361859 -50.73387 
L 318.362543 -49.97703 
L 319.363226 -49.239506 
L 320.36391 -48.521178 
L 321.364593 -47.82191 
L 322.365277 -47.141546 
L 323.36596 -46.479915 
L 324.366644 -45.836828 
L 324.366644 -29.664657 
L 324.366644 -29.664657 
L 323.36596 -29.664657 
L 322.365277 -29.664657 
L 321.364593 -29.664657 
L 320.36391 -29.664657 
L 319.363226 -29.664657 
L 318.362543 -29.664657 
L 317.361859 -29.664657 
L 316.361176 -29.664657 
L 315.360492 -29.664657 
L 314.359809 -29.664657 
L 313.359125 -29.664657 
L 312.358442 -29.664657 
L 311.357758 -29.664657 
L 310.357075 -29.664657 
L 309.356391 -29.664657 
L 308.355707 -29.664657 
L 307.355024 -29.664657 
L 306.35434 -29.664657 
L 305.353657 -29.664657 
L 304.352973 -29.664657 
L 303.35229 -29.664657 
L 302.351606 -29.664657 
L 301.350923 -29.664657 
L 300.350239 -29.664657 
L 299.349556 -29.664657 
L 298.348872 -29.664657 
L 297.348189 -29.664657 
L 296.347505 -29.664657 
L 295.346822 -29.664657 
L 294.346138 -29.664657 
L 293.345455 -29.664657 
L 292.344771 -29.664657 
L 291.344087 -29.664657 
L 290.343404 -29.664657 
L 289.34272 -29.664657 
L 288.342037 -29.664657 
L 287.341353 -29.664657 
L 286.34067 -29.664657 
L 285.339986 -29.664657 
L 284.339303 -29.664657 
L 283.338619 -29.664657 
L 282.337936 -29.664657 
L 281.337252 -29.664657 
L 280.336569 -29.664657 
L 279.335885 -29.664657 
L 278.335202 -29.664657 
L 277.334518 -29.664657 
L 276.333835 -29.664657 
L 275.333151 -29.664657 
L 274.332468 -29.664657 
L 273.331784 -29.664657 
L 272.3311 -29.664657 
L 271.330417 -29.664657 
L 270.329733 -29.664657 
L 269.32905 -29.664657 
L 268.328366 -29.664657 
L 267.327683 -29.664657 
L 266.326999 -29.664657 
L 265.326316 -29.664657 
L 264.325632 -29.664657 
L 263.324949 -29.664657 
L 262.324265 -29.664657 
L 261.323582 -29.664657 
L 260.322898 -29.664657 
L 259.322215 -29.664657 
L 258.321531 -29.664657 
L 257.320848 -29.664657 
L 256.320164 -29.664657 
L 255.319481 -29.664657 
L 254.318797 -29.664657 
L 253.318113 -29.664657 
L 252.31743 -29.664657 
L 251.316746 -29.664657 
L 250.316063 -29.664657 
L 249.315379 -29.664657 
L 248.314696 -29.664657 
L 247.314012 -29.664657 
L 246.313329 -29.664657 
L 245.312645 -29.664657 
L 244.311962 -29.664657 
L 243.311278 -29.664657 
L 242.310595 -29.664657 
L 241.309911 -29.664657 
L 240.309228 -29.664657 
L 239.308544 -29.664657 
L 238.307861 -29.664657 
L 237.307177 -29.664657 
L 236.306494 -29.664657 
L 235.30581 -29.664657 
L 234.305126 -29.664657 
L 233.304443 -29.664657 
L 232.303759 -29.664657 
L 231.303076 -29.664657 
L 230.302392 -29.664657 
L 229.301709 -29.664657 
L 228.301025 -29.664657 
L 227.300342 -29.664657 
L 226.299658 -29.664657 
L 225.298975 -29.664657 
L 224.298291 -29.664657 
L 223.297608 -29.664657 
L 222.296924 -29.664657 
L 221.296241 -29.664657 
L 220.295557 -29.664657 
L 219.294874 -29.664657 
L 218.29419 -29.664657 
L 217.293506 -29.664657 
L 216.292823 -29.664657 
L 215.292139 -29.664657 
L 214.291456 -29.664657 
L 213.290772 -29.664657 
L 212.290089 -29.664657 
L 211.289405 -29.664657 
L 210.288722 -29.664657 
L 209.288038 -29.664657 
L 208.287355 -29.664657 
L 207.286671 -29.664657 
L 206.285988 -29.664657 
L 205.285304 -29.664657 
L 204.284621 -29.664657 
L 203.283937 -29.664657 
L 202.283254 -29.664657 
L 201.28257 -29.664657 
L 200.281887 -29.664657 
L 199.281203 -29.664657 
L 198.280519 -29.664657 
L 197.279836 -29.664657 
L 196.279152 -29.664657 
L 195.278469 -29.664657 
L 194.277785 -29.664657 
L 193.277102 -29.664657 
L 192.276418 -29.664657 
L 191.275735 -29.664657 
L 190.275051 -29.664657 
L 189.274368 -29.664657 
L 188.273684 -29.664657 
L 187.273001 -29.664657 
L 186.272317 -29.664657 
L 185.271634 -29.664657 
L 184.27095 -29.664657 
L 183.270267 -29.664657 
L 182.269583 -29.664657 
L 181.2689 -29.664657 
L 180.268216 -29.664657 
L 179.267532 -29.664657 
L 178.266849 -29.664657 
L 177.266165 -29.664657 
L 176.265482 -29.664657 
L 175.264798 -29.664657 
L 174.264115 -29.664657 
L 173.263431 -29.664657 
L 172.262748 -29.664657 
L 171.262064 -29.664657 
L 170.261381 -29.664657 
L 169.260697 -29.664657 
L 168.260014 -29.664657 
L 167.25933 -29.664657 
L 166.258647 -29.664657 
L 165.257963 -29.664657 
L 164.25728 -29.664657 
L 163.256596 -29.664657 
L 162.255913 -29.664657 
L 161.255229 -29.664657 
L 160.254545 -29.664657 
L 159.253862 -29.664657 
L 158.253178 -29.664657 
L 157.252495 -29.664657 
L 156.251811 -29.664657 
L 155.251128 -29.664657 
L 154.250444 -29.664657 
L 153.249761 -29.664657 
L 152.249077 -29.664657 
L 151.248394 -29.664657 
L 150.24771 -29.664657 
L 149.247027 -29.664657 
L 148.246343 -29.664657 
L 147.24566 -29.664657 
L 146.244976 -29.664657 
L 145.244293 -29.664657 
L 144.243609 -29.664657 
L 143.242925 -29.664657 
L 142.242242 -29.664657 
L 141.241558 -29.664657 
L 140.240875 -29.664657 
L 139.240191 -29.664657 
L 138.239508 -29.664657 
L 137.238824 -29.664657 
L 136.238141 -29.664657 
L 135.237457 -29.664657 
L 134.236774 -29.664657 
L 133.23609 -29.664657 
L 132.235407 -29.664657 
L 131.234723 -29.664657 
L 130.23404 -29.664657 
L 129.233356 -29.664657 
L 128.232673 -29.664657 
L 127.231989 -29.664657 
L 126.231306 -29.664657 
L 125.230622 -29.664657 
L 124.229938 -29.664657 
L 123.229255 -29.664657 
L 122.228571 -29.664657 
L 121.227888 -29.664657 
L 120.227204 -29.664657 
L 119.226521 -29.664657 
L 118.225837 -29.664657 
L 117.225154 -29.664657 
L 116.22447 -29.664657 
L 115.223787 -29.664657 
L 114.223103 -29.664657 
L 113.22242 -29.664657 
L 112.221736 -29.664657 
L 111.221053 -29.664657 
L 110.220369 -29.664657 
L 109.219686 -29.664657 
L 108.219002 -29.664657 
L 107.218319 -29.664657 
L 106.217635 -29.664657 
L 105.216951 -29.664657 
L 104.216268 -29.664657 
L 103.215584 -29.664657 
L 102.214901 -29.664657 
L 101.214217 -29.664657 
L 100.213534 -29.664657 
L 99.21285 -29.664657 
L 98.212167 -29.664657 
L 97.211483 -29.664657 
L 96.2108 -29.664657 
L 95.210116 -29.664657 
L 94.209433 -29.664657 
L 93.208749 -29.664657 
L 92.208066 -29.664657 
L 91.207382 -29.664657 
L 90.206699 -29.664657 
L 89.206015 -29.664657 
L 88.205332 -29.664657 
L 87.204648 -29.664657 
L 86.203964 -29.664657 
L 85.203281 -29.664657 
L 84.202597 -29.664657 
L 83.201914 -29.664657 
L 82.20123 -29.664657 
L 81.200547 -29.664657 
L 80.199863 -29.664657 
L 79.19918 -29.664657 
L 78.198496 -29.664657 
L 77.197813 -29.664657 
L 76.197129 -29.664657 
L 75.196446 -29.664657 
L 74.195762 -29.664657 
L 73.195079 -29.664657 
L 72.194395 -29.664657 
L 71.193712 -29.664657 
L 70.193028 -29.664657 
L 69.192344 -29.664657 
L 68.191661 -29.664657 
L 67.190977 -29.664657 
L 66.190294 -29.664657 
L 65.18961 -29.664657 
L 64.188927 -29.664657 
L 63.188243 -29.664657 
L 62.18756 -29.664657 
L 61.186876 -29.664657 
L 60.186193 -29.664657 
L 59.185509 -29.664657 
L 58.184826 -29.664657 
L 57.184142 -29.664657 
L 56.183459 -29.664657 
L 55.182775 -29.664657 
L 54.182092 -29.664657 
L 53.181408 -29.664657 
L 52.180725 -29.664657 
L 51.180041 -29.664657 
L 50.179357 -29.664657 
L 49.178674 -29.664657 
L 48.17799 -29.664657 
L 47.177307 -29.664657 
L 46.176623 -29.664657 
L 45.17594 -29.664657 
L 44.175256 -29.664657 
L 43.174573 -29.664657 
L 42.173889 -29.664657 
L 41.173206 -29.664657 
L 40.172522 -29.664657 
L 39.171839 -29.664657 
L 38.171155 -29.664657 
L 37.170472 -29.664657 
L 36.169788 -29.664657 
L 35.169105 -29.664657 
L 34.168421 -29.664657 
L 33.167738 -29.664657 
L 32.167054 -29.664657 
L 31.16637 -29.664657 
L 30.165687 -29.664657 
L 29.165003 -29.664657 
L 28.16432 -29.664657 
L 27.163636 -29.664657 
z
" style="stroke: #1d63c4; stroke-opacity: 0.15"/>
    </defs>
    <g clip-path="url(#pe2ac03ae9d)">
     <use xlink:href="#m340584b626" x="0" y="165.60082" style="fill: #1d63c4; fill-opacity: 0.15; stroke: #1d63c4; stroke-opacity: 0.15"/>
    </g>
   </g>
   <g id="matplotlib.axis_1">
    <g id="xtick_1">
     <g id="line2d_1">
      <defs>
       <path id="m40bd043fe5" d="M 0 0 
L 0 3.5 
" style="stroke: #5b6474; stroke-width: 0.8"/>
      </defs>
      <g>
       <use xlink:href="#m40bd043fe5" x="27.163636" y="141.40082" style="fill: #5b6474; stroke: #5b6474; stroke-width: 0.8"/>
      </g>
     </g>
     <g id="text_1">
      <!-- −4 -->
      <g style="fill: #5b6474" transform="translate(19.792543 155.998477) scale(0.1 -0.1)">
       <defs>
        <path id="DejaVuSans-c9c" d="M 678 2272 
L 4684 2272 
L 4684 1741 
L 678 1741 
L 678 2272 
z
" transform="scale(0.015625)"/>
        <path id="DejaVuSans-17" d="M 2419 4116 
L 825 1625 
L 2419 1625 
L 2419 4116 
z
M 2253 4666 
L 3047 4666 
L 3047 1625 
L 3713 1625 
L 3713 1100 
L 3047 1100 
L 3047 0 
L 2419 0 
L 2419 1100 
L 313 1100 
L 313 1709 
L 2253 4666 
z
" transform="scale(0.015625)"/>
       </defs>
       <use xlink:href="#DejaVuSans-c9c"/>
       <use xlink:href="#DejaVuSans-17" transform="translate(83.796875 0)"/>
      </g>
     </g>
    </g>
    <g id="xtick_2">
     <g id="line2d_2">
      <g>
       <use xlink:href="#m40bd043fe5" x="77.072727" y="141.40082" style="fill: #5b6474; stroke: #5b6474; stroke-width: 0.8"/>
      </g>
     </g>
     <g id="text_2">
      <!-- −3 -->
      <g style="fill: #5b6474" transform="translate(69.701634 155.998477) scale(0.1 -0.1)">
       <defs>
        <path id="DejaVuSans-16" d="M 2597 2516 
Q 3050 2419 3304 2112 
Q 3559 1806 3559 1356 
Q 3559 666 3084 287 
Q 2609 -91 1734 -91 
Q 1441 -91 1130 -33 
Q 819 25 488 141 
L 488 750 
Q 750 597 1062 519 
Q 1375 441 1716 441 
Q 2309 441 2620 675 
Q 2931 909 2931 1356 
Q 2931 1769 2642 2001 
Q 2353 2234 1838 2234 
L 1294 2234 
L 1294 2753 
L 1863 2753 
Q 2328 2753 2575 2939 
Q 2822 3125 2822 3475 
Q 2822 3834 2567 4026 
Q 2313 4219 1838 4219 
Q 1578 4219 1281 4162 
Q 984 4106 628 3988 
L 628 4550 
Q 988 4650 1302 4700 
Q 1616 4750 1894 4750 
Q 2613 4750 3031 4423 
Q 3450 4097 3450 3541 
Q 3450 3153 3228 2886 
Q 3006 2619 2597 2516 
z
" transform="scale(0.015625)"/>
       </defs>
       <use xlink:href="#DejaVuSans-c9c"/>
       <use xlink:href="#DejaVuSans-16" transform="translate(83.796875 0)"/>
      </g>
     </g>
    </g>
    <g id="xtick_3">
     <g id="line2d_3">
      <g>
       <use xlink:href="#m40bd043fe5" x="126.981818" y="141.40082" style="fill: #5b6474; stroke: #5b6474; stroke-width: 0.8"/>
      </g>
     </g>
     <g id="text_3">
      <!-- −2 -->
      <g style="fill: #5b6474" transform="translate(119.610724 155.998477) scale(0.1 -0.1)">
       <defs>
        <path id="DejaVuSans-15" d="M 1228 531 
L 3431 531 
L 3431 0 
L 469 0 
L 469 531 
Q 828 903 1448 1529 
Q 2069 2156 2228 2338 
Q 2531 2678 2651 2914 
Q 2772 3150 2772 3378 
Q 2772 3750 2511 3984 
Q 2250 4219 1831 4219 
Q 1534 4219 1204 4116 
Q 875 4013 500 3803 
L 500 4441 
Q 881 4594 1212 4672 
Q 1544 4750 1819 4750 
Q 2544 4750 2975 4387 
Q 3406 4025 3406 3419 
Q 3406 3131 3298 2873 
Q 3191 2616 2906 2266 
Q 2828 2175 2409 1742 
Q 1991 1309 1228 531 
z
" transform="scale(0.015625)"/>
       </defs>
       <use xlink:href="#DejaVuSans-c9c"/>
       <use xlink:href="#DejaVuSans-15" transform="translate(83.796875 0)"/>
      </g>
     </g>
    </g>
    <g id="xtick_4">
     <g id="line2d_4">
      <g>
       <use xlink:href="#m40bd043fe5" x="176.890909" y="141.40082" style="fill: #5b6474; stroke: #5b6474; stroke-width: 0.8"/>
      </g>
     </g>
     <g id="text_4">
      <!-- −1 -->
      <g style="fill: #5b6474" transform="translate(169.519815 155.998477) scale(0.1 -0.1)">
       <defs>
        <path id="DejaVuSans-14" d="M 794 531 
L 1825 531 
L 1825 4091 
L 703 3866 
L 703 4441 
L 1819 4666 
L 2450 4666 
L 2450 531 
L 3481 531 
L 3481 0 
L 794 0 
L 794 531 
z
" transform="scale(0.015625)"/>
       </defs>
       <use xlink:href="#DejaVuSans-c9c"/>
       <use xlink:href="#DejaVuSans-14" transform="translate(83.796875 0)"/>
      </g>
     </g>
    </g>
    <g id="xtick_5">
     <g id="line2d_5">
      <g>
       <use xlink:href="#m40bd043fe5" x="226.8" y="141.40082" style="fill: #5b6474; stroke: #5b6474; stroke-width: 0.8"/>
      </g>
     </g>
     <g id="text_5">
      <!-- 0 -->
      <g style="fill: #5b6474" transform="translate(223.61875 155.998477) scale(0.1 -0.1)">
       <defs>
        <path id="DejaVuSans-13" d="M 2034 4250 
Q 1547 4250 1301 3770 
Q 1056 3291 1056 2328 
Q 1056 1369 1301 889 
Q 1547 409 2034 409 
Q 2525 409 2770 889 
Q 3016 1369 3016 2328 
Q 3016 3291 2770 3770 
Q 2525 4250 2034 4250 
z
M 2034 4750 
Q 2819 4750 3233 4129 
Q 3647 3509 3647 2328 
Q 3647 1150 3233 529 
Q 2819 -91 2034 -91 
Q 1250 -91 836 529 
Q 422 1150 422 2328 
Q 422 3509 836 4129 
Q 1250 4750 2034 4750 
z
" transform="scale(0.015625)"/>
       </defs>
       <use xlink:href="#DejaVuSans-13"/>
      </g>
     </g>
    </g>
    <g id="xtick_6">
     <g id="line2d_6">
      <g>
       <use xlink:href="#m40bd043fe5" x="276.709091" y="141.40082" style="fill: #5b6474; stroke: #5b6474; stroke-width: 0.8"/>
      </g>
     </g>
     <g id="text_6">
      <!-- 1 -->
      <g style="fill: #5b6474" transform="translate(273.527841 155.998477) scale(0.1 -0.1)">
       <use xlink:href="#DejaVuSans-14"/>
      </g>
     </g>
    </g>
    <g id="xtick_7">
     <g id="line2d_7">
      <g>
       <use xlink:href="#m40bd043fe5" x="326.618182" y="141.40082" style="fill: #5b6474; stroke: #5b6474; stroke-width: 0.8"/>
      </g>
     </g>
     <g id="text_7">
      <!-- 2 -->
      <g style="fill: #5b6474" transform="translate(323.436932 155.998477) scale(0.1 -0.1)">
       <use xlink:href="#DejaVuSans-15"/>
      </g>
     </g>
    </g>
    <g id="xtick_8">
     <g id="line2d_8">
      <g>
       <use xlink:href="#m40bd043fe5" x="376.527273" y="141.40082" style="fill: #5b6474; stroke: #5b6474; stroke-width: 0.8"/>
      </g>
     </g>
     <g id="text_8">
      <!-- 3 -->
      <g style="fill: #5b6474" transform="translate(373.346023 155.998477) scale(0.1 -0.1)">
       <use xlink:href="#DejaVuSans-16"/>
      </g>
     </g>
    </g>
    <g id="xtick_9">
     <g id="line2d_9">
      <g>
       <use xlink:href="#m40bd043fe5" x="426.436364" y="141.40082" style="fill: #5b6474; stroke: #5b6474; stroke-width: 0.8"/>
      </g>
     </g>
     <g id="text_9">
      <!-- 4 -->
      <g style="fill: #5b6474" transform="translate(423.255114 155.998477) scale(0.1 -0.1)">
       <use xlink:href="#DejaVuSans-17"/>
      </g>
     </g>
    </g>
   </g>
   <g id="matplotlib.axis_2"/>
   <g id="line2d_10">
    <path d="M 27.163636 135.899497 
L 50.179357 135.727625 
L 63.188243 135.42914 
L 73.195079 134.977309 
L 81.200547 134.385343 
L 88.205332 133.623547 
L 94.209433 132.729562 
L 99.21285 131.771995 
L 104.216268 130.582552 
L 109.219686 129.122187 
L 113.22242 127.731495 
L 117.225154 126.120312 
L 121.227888 124.268026 
L 125.230622 122.155134 
L 129.233356 119.763992 
L 133.23609 117.079642 
L 137.238824 114.090694 
L 141.241558 110.79023 
L 145.244293 107.176705 
L 149.247027 103.254796 
L 153.249761 99.03617 
L 157.252495 94.540111 
L 162.255913 88.572372 
L 168.260014 80.998518 
L 176.265482 70.473883 
L 186.272317 57.33492 
L 191.275735 51.096009 
L 195.278469 46.400416 
L 199.281203 42.050767 
L 202.283254 39.0602 
L 205.285304 36.335388 
L 208.287355 33.903764 
L 211.289405 31.790265 
L 214.291456 30.016904 
L 217.293506 28.60239 
L 219.294874 27.866345 
L 221.296241 27.300084 
L 223.297608 26.906319 
L 225.298975 26.686945 
L 227.300342 26.643017 
L 229.301709 26.774747 
L 231.303076 27.081501 
L 233.304443 27.561803 
L 235.30581 28.213346 
L 237.307177 29.033014 
L 240.309228 30.569004 
L 243.311278 32.457994 
L 246.313329 34.680133 
L 249.315379 37.212389 
L 252.31743 40.028945 
L 255.319481 43.101636 
L 259.322215 47.544848 
L 263.324949 52.314996 
L 268.328366 58.619831 
L 276.333835 69.144754 
L 286.34067 82.286222 
L 292.344771 89.793981 
L 297.348189 95.68878 
L 301.350923 100.117724 
L 305.353657 104.263672 
L 309.356391 108.109294 
L 313.359125 111.644735 
L 317.361859 114.86695 
L 321.364593 117.77891 
L 325.367327 120.388736 
L 329.370062 122.708793 
L 333.372796 124.754793 
L 337.37553 126.544919 
L 341.378264 128.09902 
L 345.380998 129.437874 
L 350.384416 130.840834 
L 355.387833 131.980851 
L 360.391251 132.896506 
L 366.395352 133.749229 
L 372.399453 134.385343 
L 379.404238 134.916482 
L 388.41039 135.358374 
L 399.417908 135.660075 
L 415.428845 135.849699 
L 426.436364 135.899497 
L 426.436364 135.899497 
" clip-path="url(#pe2ac03ae9d)" style="fill: none; stroke: #1d63c4; stroke-width: 2; stroke-linecap: square"/>
   </g>
   <g id="line2d_11">
    <path d="M 324.621818 141.40082 
L 324.621818 21.178359 
" clip-path="url(#pe2ac03ae9d)" style="fill: none; stroke-dasharray: 5.55,2.4; stroke-dashoffset: 0; stroke: #d64545; stroke-width: 1.5"/>
   </g>
   <g id="patch_3">
    <path d="M 7.2 141.40082 
L 7.2 21.178359 
" style="fill: none; stroke: #8a94a6; stroke-width: 0.8; stroke-linejoin: miter; stroke-linecap: square"/>
   </g>
   <g id="patch_4">
    <path d="M 7.2 141.40082 
L 446.4 141.40082 
" style="fill: none; stroke: #8a94a6; stroke-width: 0.8; stroke-linejoin: miter; stroke-linecap: square"/>
   </g>
   <g id="text_10">
    <!-- z₀.₉₇₅ = 1.96 -->
    <g style="fill: #d64545" transform="translate(329.113636 57.241738) scale(0.085 -0.085)">
     <defs>
      <path id="DejaVuSans-5d" d="M 353 3500 
L 3084 3500 
L 3084 2975 
L 922 459 
L 3084 459 
L 3084 0 
L 275 0 
L 275 525 
L 2438 3041 
L 353 3041 
L 353 3500 
z
" transform="scale(0.015625)"/>
      <path id="DejaVuSans-b5b" d="M 1781 2115 
Q 1625 2384 1309 2384 
Q 994 2384 838 2115 
Q 678 1846 678 1309 
Q 678 768 838 500 
Q 994 231 1309 231 
Q 1625 231 1781 500 
Q 1941 768 1941 1309 
Q 1941 1846 1781 2115 
z
M 1309 2662 
Q 1813 2662 2078 2315 
Q 2344 1968 2344 1309 
Q 2344 646 2078 299 
Q 1813 -47 1309 -47 
Q 803 -47 537 299 
Q 272 646 272 1309 
Q 272 1968 537 2315 
Q 803 2662 1309 2662 
z
" transform="scale(0.015625)"/>
      <path id="DejaVuSans-11" d="M 684 794 
L 1344 794 
L 1344 0 
L 684 0 
L 684 794 
z
" transform="scale(0.015625)"/>
      <path id="DejaVuSans-b64" d="M 453 56 
L 453 378 
Q 606 315 763 281 
Q 919 250 1069 250 
Q 1472 250 1684 484 
Q 1894 718 1925 1200 
Q 1816 1053 1628 968 
Q 1450 887 1234 887 
Q 784 887 521 1124 
Q 259 1362 259 1775 
Q 259 2178 531 2418 
Q 806 2662 1259 2662 
Q 1781 2662 2053 2315 
Q 2328 1968 2328 1306 
Q 2328 687 1994 321 
Q 1656 -47 1088 -47 
Q 934 -47 778 -22 
Q 622 6 453 56 
z
M 1259 1162 
Q 1534 1162 1693 1324 
Q 1853 1487 1853 1775 
Q 1853 2056 1694 2218 
Q 1534 2384 1259 2384 
Q 994 2384 828 2218 
Q 666 2056 666 1775 
Q 666 1487 828 1325 
Q 988 1162 1259 1162 
z
" transform="scale(0.015625)"/>
      <path id="DejaVuSans-b62" d="M 338 2609 
L 2266 2609 
L 2266 2459 
L 1178 0 
L 753 0 
L 1778 2312 
L 338 2312 
L 338 2609 
z
" transform="scale(0.015625)"/>
      <path id="DejaVuSans-b60" d="M 444 2609 
L 2038 2609 
L 2038 2312 
L 816 2312 
L 816 1675 
Q 903 1703 994 1715 
Q 1081 1728 1169 1728 
Q 1672 1728 1966 1487 
Q 2259 1250 2259 840 
Q 2259 418 1956 184 
Q 1656 -47 1106 -47 
Q 919 -47 722 -19 
Q 525 9 319 65 
L 319 418 
Q 497 334 691 290 
Q 884 250 1100 250 
Q 1447 250 1650 409 
Q 1853 568 1853 840 
Q 1853 1112 1650 1271 
Q 1447 1431 1100 1431 
Q 938 1431 775 1399 
Q 613 1368 444 1303 
L 444 2609 
z
" transform="scale(0.015625)"/>
      <path id="DejaVuSans-3" transform="scale(0.015625)"/>
      <path id="DejaVuSans-20" d="M 678 2906 
L 4684 2906 
L 4684 2381 
L 678 2381 
L 678 2906 
z
M 678 1631 
L 4684 1631 
L 4684 1100 
L 678 1100 
L 678 1631 
z
" transform="scale(0.015625)"/>
      <path id="DejaVuSans-1c" d="M 703 97 
L 703 672 
Q 941 559 1184 500 
Q 1428 441 1663 441 
Q 2288 441 2617 861 
Q 2947 1281 2994 2138 
Q 2813 1869 2534 1725 
Q 2256 1581 1919 1581 
Q 1219 1581 811 2004 
Q 403 2428 403 3163 
Q 403 3881 828 4315 
Q 1253 4750 1959 4750 
Q 2769 4750 3195 4129 
Q 3622 3509 3622 2328 
Q 3622 1225 3098 567 
Q 2575 -91 1691 -91 
Q 1453 -91 1209 -44 
Q 966 3 703 97 
z
M 1959 2075 
Q 2384 2075 2632 2365 
Q 2881 2656 2881 3163 
Q 2881 3666 2632 3958 
Q 2384 4250 1959 4250 
Q 1534 4250 1286 3958 
Q 1038 3666 1038 3163 
Q 1038 2656 1286 2365 
Q 1534 2075 1959 2075 
z
" transform="scale(0.015625)"/>
      <path id="DejaVuSans-19" d="M 2113 2584 
Q 1688 2584 1439 2293 
Q 1191 2003 1191 1497 
Q 1191 994 1439 701 
Q 1688 409 2113 409 
Q 2538 409 2786 701 
Q 3034 994 3034 1497 
Q 3034 2003 2786 2293 
Q 2538 2584 2113 2584 
z
M 3366 4563 
L 3366 3988 
Q 3128 4100 2886 4159 
Q 2644 4219 2406 4219 
Q 1781 4219 1451 3797 
Q 1122 3375 1075 2522 
Q 1259 2794 1537 2939 
Q 1816 3084 2150 3084 
Q 2853 3084 3261 2657 
Q 3669 2231 3669 1497 
Q 3669 778 3244 343 
Q 2819 -91 2113 -91 
Q 1303 -91 875 529 
Q 447 1150 447 2328 
Q 447 3434 972 4092 
Q 1497 4750 2381 4750 
Q 2619 4750 2861 4703 
Q 3103 4656 3366 4563 
z
" transform="scale(0.015625)"/>
     </defs>
     <use xlink:href="#DejaVuSans-5d"/>
     <use xlink:href="#DejaVuSans-b5b" transform="translate(52.484375 0)"/>
     <use xlink:href="#DejaVuSans-11" transform="translate(92.578125 0)"/>
     <use xlink:href="#DejaVuSans-b64" transform="translate(124.359375 0)"/>
     <use xlink:href="#DejaVuSans-b62" transform="translate(164.453125 0)"/>
     <use xlink:href="#DejaVuSans-b60" transform="translate(204.546875 0)"/>
     <use xlink:href="#DejaVuSans-3" transform="translate(244.640625 0)"/>
     <use xlink:href="#DejaVuSans-20" transform="translate(276.421875 0)"/>
     <use xlink:href="#DejaVuSans-3" transform="translate(360.21875 0)"/>
     <use xlink:href="#DejaVuSans-14" transform="translate(392 0)"/>
     <use xlink:href="#DejaVuSans-11" transform="translate(455.625 0)"/>
     <use xlink:href="#DejaVuSans-1c" transform="translate(487.40625 0)"/>
     <use xlink:href="#DejaVuSans-19" transform="translate(551.03125 0)"/>
    </g>
    <!-- qnorm(0.975) -->
    <g style="fill: #d64545" transform="translate(329.113636 67.443399) scale(0.085 -0.085)">
     <defs>
      <path id="DejaVuSans-54" d="M 947 1747 
Q 947 1113 1208 752 
Q 1469 391 1925 391 
Q 2381 391 2643 752 
Q 2906 1113 2906 1747 
Q 2906 2381 2643 2742 
Q 2381 3103 1925 3103 
Q 1469 3103 1208 2742 
Q 947 2381 947 1747 
z
M 2906 525 
Q 2725 213 2448 61 
Q 2172 -91 1784 -91 
Q 1150 -91 751 415 
Q 353 922 353 1747 
Q 353 2572 751 3078 
Q 1150 3584 1784 3584 
Q 2172 3584 2448 3432 
Q 2725 3281 2906 2969 
L 2906 3500 
L 3481 3500 
L 3481 -1331 
L 2906 -1331 
L 2906 525 
z
" transform="scale(0.015625)"/>
      <path id="DejaVuSans-51" d="M 3513 2113 
L 3513 0 
L 2938 0 
L 2938 2094 
Q 2938 2591 2744 2837 
Q 2550 3084 2163 3084 
Q 1697 3084 1428 2787 
Q 1159 2491 1159 1978 
L 1159 0 
L 581 0 
L 581 3500 
L 1159 3500 
L 1159 2956 
Q 1366 3272 1645 3428 
Q 1925 3584 2291 3584 
Q 2894 3584 3203 3211 
Q 3513 2838 3513 2113 
z
" transform="scale(0.015625)"/>
      <path id="DejaVuSans-52" d="M 1959 3097 
Q 1497 3097 1228 2736 
Q 959 2375 959 1747 
Q 959 1119 1226 758 
Q 1494 397 1959 397 
Q 2419 397 2687 759 
Q 2956 1122 2956 1747 
Q 2956 2369 2687 2733 
Q 2419 3097 1959 3097 
z
M 1959 3584 
Q 2709 3584 3137 3096 
Q 3566 2609 3566 1747 
Q 3566 888 3137 398 
Q 2709 -91 1959 -91 
Q 1206 -91 779 398 
Q 353 888 353 1747 
Q 353 2609 779 3096 
Q 1206 3584 1959 3584 
z
" transform="scale(0.015625)"/>
      <path id="DejaVuSans-55" d="M 2631 2963 
Q 2534 3019 2420 3045 
Q 2306 3072 2169 3072 
Q 1681 3072 1420 2755 
Q 1159 2438 1159 1844 
L 1159 0 
L 581 0 
L 581 3500 
L 1159 3500 
L 1159 2956 
Q 1341 3275 1631 3429 
Q 1922 3584 2338 3584 
Q 2397 3584 2469 3576 
Q 2541 3569 2628 3553 
L 2631 2963 
z
" transform="scale(0.015625)"/>
      <path id="DejaVuSans-50" d="M 3328 2828 
Q 3544 3216 3844 3400 
Q 4144 3584 4550 3584 
Q 5097 3584 5394 3201 
Q 5691 2819 5691 2113 
L 5691 0 
L 5113 0 
L 5113 2094 
Q 5113 2597 4934 2840 
Q 4756 3084 4391 3084 
Q 3944 3084 3684 2787 
Q 3425 2491 3425 1978 
L 3425 0 
L 2847 0 
L 2847 2094 
Q 2847 2600 2669 2842 
Q 2491 3084 2119 3084 
Q 1678 3084 1418 2786 
Q 1159 2488 1159 1978 
L 1159 0 
L 581 0 
L 581 3500 
L 1159 3500 
L 1159 2956 
Q 1356 3278 1631 3431 
Q 1906 3584 2284 3584 
Q 2666 3584 2933 3390 
Q 3200 3197 3328 2828 
z
" transform="scale(0.015625)"/>
      <path id="DejaVuSans-b" d="M 1984 4856 
Q 1566 4138 1362 3434 
Q 1159 2731 1159 2009 
Q 1159 1288 1364 580 
Q 1569 -128 1984 -844 
L 1484 -844 
Q 1016 -109 783 600 
Q 550 1309 550 2009 
Q 550 2706 781 3412 
Q 1013 4119 1484 4856 
L 1984 4856 
z
" transform="scale(0.015625)"/>
      <path id="DejaVuSans-1a" d="M 525 4666 
L 3525 4666 
L 3525 4397 
L 1831 0 
L 1172 0 
L 2766 4134 
L 525 4134 
L 525 4666 
z
" transform="scale(0.015625)"/>
      <path id="DejaVuSans-18" d="M 691 4666 
L 3169 4666 
L 3169 4134 
L 1269 4134 
L 1269 2991 
Q 1406 3038 1543 3061 
Q 1681 3084 1819 3084 
Q 2600 3084 3056 2656 
Q 3513 2228 3513 1497 
Q 3513 744 3044 326 
Q 2575 -91 1722 -91 
Q 1428 -91 1123 -41 
Q 819 9 494 109 
L 494 744 
Q 775 591 1075 516 
Q 1375 441 1709 441 
Q 2250 441 2565 725 
Q 2881 1009 2881 1497 
Q 2881 1984 2565 2268 
Q 2250 2553 1709 2553 
Q 1456 2553 1204 2497 
Q 953 2441 691 2322 
L 691 4666 
z
" transform="scale(0.015625)"/>
      <path id="DejaVuSans-c" d="M 513 4856 
L 1013 4856 
Q 1481 4119 1714 3412 
Q 1947 2706 1947 2009 
Q 1947 1309 1714 600 
Q 1481 -109 1013 -844 
L 513 -844 
Q 928 -128 1133 580 
Q 1338 1288 1338 2009 
Q 1338 2731 1133 3434 
Q 928 4138 513 4856 
z
" transform="scale(0.015625)"/>
     </defs>
     <use xlink:href="#DejaVuSans-54"/>
     <use xlink:href="#DejaVuSans-51" transform="translate(63.484375 0)"/>
     <use xlink:href="#DejaVuSans-52" transform="translate(126.859375 0)"/>
     <use xlink:href="#DejaVuSans-55" transform="translate(188.046875 0)"/>
     <use xlink:href="#DejaVuSans-50" transform="translate(227.40625 0)"/>
     <use xlink:href="#DejaVuSans-b" transform="translate(324.8125 0)"/>
     <use xlink:href="#DejaVuSans-13" transform="translate(363.828125 0)"/>
     <use xlink:href="#DejaVuSans-11" transform="translate(427.453125 0)"/>
     <use xlink:href="#DejaVuSans-1c" transform="translate(459.234375 0)"/>
     <use xlink:href="#DejaVuSans-1a" transform="translate(522.859375 0)"/>
     <use xlink:href="#DejaVuSans-18" transform="translate(586.484375 0)"/>
     <use xlink:href="#DejaVuSans-c" transform="translate(650.109375 0)"/>
    </g>
   </g>
   <g id="text_11">
    <!-- Fläche = 0.975 -->
    <g transform="translate(164.549897 82.656316) scale(0.085 -0.085)">
     <defs>
      <path id="DejaVuSans-29" d="M 628 4666 
L 3309 4666 
L 3309 4134 
L 1259 4134 
L 1259 2759 
L 3109 2759 
L 3109 2228 
L 1259 2228 
L 1259 0 
L 628 0 
L 628 4666 
z
" transform="scale(0.015625)"/>
      <path id="DejaVuSans-4f" d="M 603 4863 
L 1178 4863 
L 1178 0 
L 603 0 
L 603 4863 
z
" transform="scale(0.015625)"/>
      <path id="DejaVuSans-a6" d="M 2194 1759 
Q 1497 1759 1228 1600 
Q 959 1441 959 1056 
Q 959 750 1161 570 
Q 1363 391 1709 391 
Q 2188 391 2477 730 
Q 2766 1069 2766 1631 
L 2766 1759 
L 2194 1759 
z
M 3341 1997 
L 3341 0 
L 2766 0 
L 2766 531 
Q 2569 213 2275 61 
Q 1981 -91 1556 -91 
Q 1019 -91 701 211 
Q 384 513 384 1019 
Q 384 1609 779 1909 
Q 1175 2209 1959 2209 
L 2766 2209 
L 2766 2266 
Q 2766 2663 2505 2880 
Q 2244 3097 1772 3097 
Q 1472 3097 1187 3025 
Q 903 2953 641 2809 
L 641 3341 
Q 956 3463 1253 3523 
Q 1550 3584 1831 3584 
Q 2591 3584 2966 3190 
Q 3341 2797 3341 1997 
z
M 2150 4850 
L 2784 4850 
L 2784 4219 
L 2150 4219 
L 2150 4850 
z
M 928 4850 
L 1562 4850 
L 1562 4219 
L 928 4219 
L 928 4850 
z
" transform="scale(0.015625)"/>
      <path id="DejaVuSans-46" d="M 3122 3366 
L 3122 2828 
Q 2878 2963 2633 3030 
Q 2388 3097 2138 3097 
Q 1578 3097 1268 2742 
Q 959 2388 959 1747 
Q 959 1106 1268 751 
Q 1578 397 2138 397 
Q 2388 397 2633 464 
Q 2878 531 3122 666 
L 3122 134 
Q 2881 22 2623 -34 
Q 2366 -91 2075 -91 
Q 1284 -91 818 406 
Q 353 903 353 1747 
Q 353 2603 823 3093 
Q 1294 3584 2113 3584 
Q 2378 3584 2631 3529 
Q 2884 3475 3122 3366 
z
" transform="scale(0.015625)"/>
      <path id="DejaVuSans-4b" d="M 3513 2113 
L 3513 0 
L 2938 0 
L 2938 2094 
Q 2938 2591 2744 2837 
Q 2550 3084 2163 3084 
Q 1697 3084 1428 2787 
Q 1159 2491 1159 1978 
L 1159 0 
L 581 0 
L 581 4863 
L 1159 4863 
L 1159 2956 
Q 1366 3272 1645 3428 
Q 1925 3584 2291 3584 
Q 2894 3584 3203 3211 
Q 3513 2838 3513 2113 
z
" transform="scale(0.015625)"/>
      <path id="DejaVuSans-48" d="M 3597 1894 
L 3597 1613 
L 953 1613 
Q 991 1019 1311 708 
Q 1631 397 2203 397 
Q 2534 397 2845 478 
Q 3156 559 3463 722 
L 3463 178 
Q 3153 47 2828 -22 
Q 2503 -91 2169 -91 
Q 1331 -91 842 396 
Q 353 884 353 1716 
Q 353 2575 817 3079 
Q 1281 3584 2069 3584 
Q 2775 3584 3186 3129 
Q 3597 2675 3597 1894 
z
M 3022 2063 
Q 3016 2534 2758 2815 
Q 2500 3097 2075 3097 
Q 1594 3097 1305 2825 
Q 1016 2553 972 2059 
L 3022 2063 
z
" transform="scale(0.015625)"/>
     </defs>
     <use xlink:href="#DejaVuSans-29"/>
     <use xlink:href="#DejaVuSans-4f" transform="translate(57.515625 0)"/>
     <use xlink:href="#DejaVuSans-a6" transform="translate(85.296875 0)"/>
     <use xlink:href="#DejaVuSans-46" transform="translate(146.578125 0)"/>
     <use xlink:href="#DejaVuSans-4b" transform="translate(201.5625 0)"/>
     <use xlink:href="#DejaVuSans-48" transform="translate(264.9375 0)"/>
     <use xlink:href="#DejaVuSans-3" transform="translate(326.46875 0)"/>
     <use xlink:href="#DejaVuSans-20" transform="translate(358.25 0)"/>
     <use xlink:href="#DejaVuSans-3" transform="translate(442.046875 0)"/>
     <use xlink:href="#DejaVuSans-13" transform="translate(473.828125 0)"/>
     <use xlink:href="#DejaVuSans-11" transform="translate(537.453125 0)"/>
     <use xlink:href="#DejaVuSans-1c" transform="translate(569.234375 0)"/>
     <use xlink:href="#DejaVuSans-1a" transform="translate(632.859375 0)"/>
     <use xlink:href="#DejaVuSans-18" transform="translate(696.484375 0)"/>
    </g>
    <!-- = Φ(1.96) -->
    <g transform="translate(175.81771 92.857976) scale(0.085 -0.085)">
     <defs>
      <path id="DejaVuSans-33a" d="M 2206 3644 
Q 1738 3578 1431 3306 
Q 1025 2947 1025 2328 
Q 1025 1713 1431 1353 
Q 1738 1081 2206 1016 
L 2206 3644 
z
M 2838 1016 
Q 3306 1081 3613 1353 
Q 4013 1713 4013 2328 
Q 4013 2947 3613 3306 
Q 3306 3578 2838 3644 
L 2838 1016 
z
M 2206 494 
Q 1444 563 950 981 
Q 359 1481 359 2328 
Q 359 3175 950 3678 
Q 1441 4100 2206 4169 
L 2206 4666 
L 2838 4666 
L 2838 4169 
Q 3600 4097 4091 3678 
Q 4678 3175 4678 2328 
Q 4678 1484 4091 981 
Q 3600 563 2838 491 
L 2838 0 
L 2206 0 
L 2206 494 
z
" transform="scale(0.015625)"/>
     </defs>
     <use xlink:href="#DejaVuSans-20"/>
     <use xlink:href="#DejaVuSans-3" transform="translate(83.796875 0)"/>
     <use xlink:href="#DejaVuSans-33a" transform="translate(115.578125 0)"/>
     <use xlink:href="#DejaVuSans-b" transform="translate(194.296875 0)"/>
     <use xlink:href="#DejaVuSans-14" transform="translate(233.3125 0)"/>
     <use xlink:href="#DejaVuSans-11" transform="translate(296.9375 0)"/>
     <use xlink:href="#DejaVuSans-1c" transform="translate(328.71875 0)"/>
     <use xlink:href="#DejaVuSans-19" transform="translate(392.34375 0)"/>
     <use xlink:href="#DejaVuSans-c" transform="translate(455.96875 0)"/>
    </g>
    <!-- = pnorm(1.96) -->
    <g transform="translate(165.358725 103.059636) scale(0.085 -0.085)">
     <defs>
      <path id="DejaVuSans-53" d="M 1159 525 
L 1159 -1331 
L 581 -1331 
L 581 3500 
L 1159 3500 
L 1159 2969 
Q 1341 3281 1617 3432 
Q 1894 3584 2278 3584 
Q 2916 3584 3314 3078 
Q 3713 2572 3713 1747 
Q 3713 922 3314 415 
Q 2916 -91 2278 -91 
Q 1894 -91 1617 61 
Q 1341 213 1159 525 
z
M 3116 1747 
Q 3116 2381 2855 2742 
Q 2594 3103 2138 3103 
Q 1681 3103 1420 2742 
Q 1159 2381 1159 1747 
Q 1159 1113 1420 752 
Q 1681 391 2138 391 
Q 2594 391 2855 752 
Q 3116 1113 3116 1747 
z
" transform="scale(0.015625)"/>
     </defs>
     <use xlink:href="#DejaVuSans-20"/>
     <use xlink:href="#DejaVuSans-3" transform="translate(83.796875 0)"/>
     <use xlink:href="#DejaVuSans-53" transform="translate(115.578125 0)"/>
     <use xlink:href="#DejaVuSans-51" transform="translate(179.0625 0)"/>
     <use xlink:href="#DejaVuSans-52" transform="translate(242.4375 0)"/>
     <use xlink:href="#DejaVuSans-55" transform="translate(303.625 0)"/>
     <use xlink:href="#DejaVuSans-50" transform="translate(342.984375 0)"/>
     <use xlink:href="#DejaVuSans-b" transform="translate(440.390625 0)"/>
     <use xlink:href="#DejaVuSans-14" transform="translate(479.40625 0)"/>
     <use xlink:href="#DejaVuSans-11" transform="translate(543.03125 0)"/>
     <use xlink:href="#DejaVuSans-1c" transform="translate(574.8125 0)"/>
     <use xlink:href="#DejaVuSans-19" transform="translate(638.4375 0)"/>
     <use xlink:href="#DejaVuSans-c" transform="translate(702.0625 0)"/>
    </g>
   </g>
   <g id="text_12">
    <!-- Standardnormalverteilung N(0, 1): p-Funktion ↔ q-Funktion -->
    <g transform="translate(50.470547 15.178359) scale(0.105 -0.105)">
     <defs>
      <path id="DejaVuSans-Bold-36" d="M 3834 4519 
L 3834 3531 
Q 3450 3703 3084 3790 
Q 2719 3878 2394 3878 
Q 1963 3878 1756 3759 
Q 1550 3641 1550 3391 
Q 1550 3203 1689 3098 
Q 1828 2994 2194 2919 
L 2706 2816 
Q 3484 2659 3812 2340 
Q 4141 2022 4141 1434 
Q 4141 663 3683 286 
Q 3225 -91 2284 -91 
Q 1841 -91 1394 -6 
Q 947 78 500 244 
L 500 1259 
Q 947 1022 1364 901 
Q 1781 781 2169 781 
Q 2563 781 2772 912 
Q 2981 1044 2981 1288 
Q 2981 1506 2839 1625 
Q 2697 1744 2272 1838 
L 1806 1941 
Q 1106 2091 782 2419 
Q 459 2747 459 3303 
Q 459 4000 909 4375 
Q 1359 4750 2203 4750 
Q 2588 4750 2994 4692 
Q 3400 4634 3834 4519 
z
" transform="scale(0.015625)"/>
      <path id="DejaVuSans-Bold-57" d="M 1759 4494 
L 1759 3500 
L 2913 3500 
L 2913 2700 
L 1759 2700 
L 1759 1216 
Q 1759 972 1856 886 
Q 1953 800 2241 800 
L 2816 800 
L 2816 0 
L 1856 0 
Q 1194 0 917 276 
Q 641 553 641 1216 
L 641 2700 
L 84 2700 
L 84 3500 
L 641 3500 
L 641 4494 
L 1759 4494 
z
" transform="scale(0.015625)"/>
      <path id="DejaVuSans-Bold-44" d="M 2106 1575 
Q 1756 1575 1579 1456 
Q 1403 1338 1403 1106 
Q 1403 894 1545 773 
Q 1688 653 1941 653 
Q 2256 653 2472 879 
Q 2688 1106 2688 1447 
L 2688 1575 
L 2106 1575 
z
M 3816 1997 
L 3816 0 
L 2688 0 
L 2688 519 
Q 2463 200 2181 54 
Q 1900 -91 1497 -91 
Q 953 -91 614 226 
Q 275 544 275 1050 
Q 275 1666 698 1953 
Q 1122 2241 2028 2241 
L 2688 2241 
L 2688 2328 
Q 2688 2594 2478 2717 
Q 2269 2841 1825 2841 
Q 1466 2841 1156 2769 
Q 847 2697 581 2553 
L 581 3406 
Q 941 3494 1303 3539 
Q 1666 3584 2028 3584 
Q 2975 3584 3395 3211 
Q 3816 2838 3816 1997 
z
" transform="scale(0.015625)"/>
      <path id="DejaVuSans-Bold-51" d="M 4056 2131 
L 4056 0 
L 2931 0 
L 2931 347 
L 2931 1631 
Q 2931 2084 2911 2256 
Q 2891 2428 2841 2509 
Q 2775 2619 2662 2680 
Q 2550 2741 2406 2741 
Q 2056 2741 1856 2470 
Q 1656 2200 1656 1722 
L 1656 0 
L 538 0 
L 538 3500 
L 1656 3500 
L 1656 2988 
Q 1909 3294 2193 3439 
Q 2478 3584 2822 3584 
Q 3428 3584 3742 3212 
Q 4056 2841 4056 2131 
z
" transform="scale(0.015625)"/>
      <path id="DejaVuSans-Bold-47" d="M 2919 2988 
L 2919 4863 
L 4044 4863 
L 4044 0 
L 2919 0 
L 2919 506 
Q 2688 197 2409 53 
Q 2131 -91 1766 -91 
Q 1119 -91 703 423 
Q 288 938 288 1747 
Q 288 2556 703 3070 
Q 1119 3584 1766 3584 
Q 2128 3584 2408 3439 
Q 2688 3294 2919 2988 
z
M 2181 722 
Q 2541 722 2730 984 
Q 2919 1247 2919 1747 
Q 2919 2247 2730 2509 
Q 2541 2772 2181 2772 
Q 1825 2772 1636 2509 
Q 1447 2247 1447 1747 
Q 1447 1247 1636 984 
Q 1825 722 2181 722 
z
" transform="scale(0.015625)"/>
      <path id="DejaVuSans-Bold-55" d="M 3138 2547 
Q 2991 2616 2845 2648 
Q 2700 2681 2553 2681 
Q 2122 2681 1889 2404 
Q 1656 2128 1656 1613 
L 1656 0 
L 538 0 
L 538 3500 
L 1656 3500 
L 1656 2925 
Q 1872 3269 2151 3426 
Q 2431 3584 2822 3584 
Q 2878 3584 2943 3579 
Q 3009 3575 3134 3559 
L 3138 2547 
z
" transform="scale(0.015625)"/>
      <path id="DejaVuSans-Bold-52" d="M 2203 2784 
Q 1831 2784 1636 2517 
Q 1441 2250 1441 1747 
Q 1441 1244 1636 976 
Q 1831 709 2203 709 
Q 2569 709 2762 976 
Q 2956 1244 2956 1747 
Q 2956 2250 2762 2517 
Q 2569 2784 2203 2784 
z
M 2203 3584 
Q 3106 3584 3614 3096 
Q 4122 2609 4122 1747 
Q 4122 884 3614 396 
Q 3106 -91 2203 -91 
Q 1297 -91 786 396 
Q 275 884 275 1747 
Q 275 2609 786 3096 
Q 1297 3584 2203 3584 
z
" transform="scale(0.015625)"/>
      <path id="DejaVuSans-Bold-50" d="M 3781 2919 
Q 3994 3244 4286 3414 
Q 4578 3584 4928 3584 
Q 5531 3584 5847 3212 
Q 6163 2841 6163 2131 
L 6163 0 
L 5038 0 
L 5038 1825 
Q 5041 1866 5042 1909 
Q 5044 1953 5044 2034 
Q 5044 2406 4934 2573 
Q 4825 2741 4581 2741 
Q 4263 2741 4089 2478 
Q 3916 2216 3909 1719 
L 3909 0 
L 2784 0 
L 2784 1825 
Q 2784 2406 2684 2573 
Q 2584 2741 2328 2741 
Q 2006 2741 1831 2477 
Q 1656 2213 1656 1722 
L 1656 0 
L 531 0 
L 531 3500 
L 1656 3500 
L 1656 2988 
Q 1863 3284 2130 3434 
Q 2397 3584 2719 3584 
Q 3081 3584 3359 3409 
Q 3638 3234 3781 2919 
z
" transform="scale(0.015625)"/>
      <path id="DejaVuSans-Bold-4f" d="M 538 4863 
L 1656 4863 
L 1656 0 
L 538 0 
L 538 4863 
z
" transform="scale(0.015625)"/>
      <path id="DejaVuSans-Bold-59" d="M 97 3500 
L 1216 3500 
L 2088 1081 
L 2956 3500 
L 4078 3500 
L 2700 0 
L 1472 0 
L 97 3500 
z
" transform="scale(0.015625)"/>
      <path id="DejaVuSans-Bold-48" d="M 4031 1759 
L 4031 1441 
L 1416 1441 
Q 1456 1047 1700 850 
Q 1944 653 2381 653 
Q 2734 653 3104 758 
Q 3475 863 3866 1075 
L 3866 213 
Q 3469 63 3072 -14 
Q 2675 -91 2278 -91 
Q 1328 -91 801 392 
Q 275 875 275 1747 
Q 275 2603 792 3093 
Q 1309 3584 2216 3584 
Q 3041 3584 3536 3087 
Q 4031 2591 4031 1759 
z
M 2881 2131 
Q 2881 2450 2695 2645 
Q 2509 2841 2209 2841 
Q 1884 2841 1681 2658 
Q 1478 2475 1428 2131 
L 2881 2131 
z
" transform="scale(0.015625)"/>
      <path id="DejaVuSans-Bold-4c" d="M 538 3500 
L 1656 3500 
L 1656 0 
L 538 0 
L 538 3500 
z
M 538 4863 
L 1656 4863 
L 1656 3950 
L 538 3950 
L 538 4863 
z
" transform="scale(0.015625)"/>
      <path id="DejaVuSans-Bold-58" d="M 500 1363 
L 500 3500 
L 1625 3500 
L 1625 3150 
Q 1625 2866 1622 2436 
Q 1619 2006 1619 1863 
Q 1619 1441 1641 1255 
Q 1663 1069 1716 984 
Q 1784 875 1895 815 
Q 2006 756 2150 756 
Q 2500 756 2700 1025 
Q 2900 1294 2900 1772 
L 2900 3500 
L 4019 3500 
L 4019 0 
L 2900 0 
L 2900 506 
Q 2647 200 2364 54 
Q 2081 -91 1741 -91 
Q 1134 -91 817 281 
Q 500 653 500 1363 
z
" transform="scale(0.015625)"/>
      <path id="DejaVuSans-Bold-4a" d="M 2919 594 
Q 2688 288 2409 144 
Q 2131 0 1766 0 
Q 1125 0 706 504 
Q 288 1009 288 1791 
Q 288 2575 706 3076 
Q 1125 3578 1766 3578 
Q 2131 3578 2409 3434 
Q 2688 3291 2919 2981 
L 2919 3500 
L 4044 3500 
L 4044 353 
Q 4044 -491 3511 -936 
Q 2978 -1381 1966 -1381 
Q 1638 -1381 1331 -1331 
Q 1025 -1281 716 -1178 
L 716 -306 
Q 1009 -475 1290 -558 
Q 1572 -641 1856 -641 
Q 2406 -641 2662 -400 
Q 2919 -159 2919 353 
L 2919 594 
z
M 2181 2772 
Q 1834 2772 1640 2515 
Q 1447 2259 1447 1791 
Q 1447 1309 1634 1061 
Q 1822 813 2181 813 
Q 2531 813 2725 1069 
Q 2919 1325 2919 1791 
Q 2919 2259 2725 2515 
Q 2531 2772 2181 2772 
z
" transform="scale(0.015625)"/>
      <path id="DejaVuSans-Bold-3" transform="scale(0.015625)"/>
      <path id="DejaVuSans-Bold-31" d="M 588 4666 
L 1931 4666 
L 3628 1466 
L 3628 4666 
L 4769 4666 
L 4769 0 
L 3425 0 
L 1728 3200 
L 1728 0 
L 588 0 
L 588 4666 
z
" transform="scale(0.015625)"/>
      <path id="DejaVuSans-Bold-b" d="M 2413 -844 
L 1484 -844 
Q 1006 -72 778 623 
Q 550 1319 550 2003 
Q 550 2688 779 3389 
Q 1009 4091 1484 4856 
L 2413 4856 
Q 2013 4116 1813 3408 
Q 1613 2700 1613 2009 
Q 1613 1319 1811 609 
Q 2009 -100 2413 -844 
z
" transform="scale(0.015625)"/>
      <path id="DejaVuSans-Bold-13" d="M 2944 2338 
Q 2944 3213 2780 3570 
Q 2616 3928 2228 3928 
Q 1841 3928 1675 3570 
Q 1509 3213 1509 2338 
Q 1509 1453 1675 1090 
Q 1841 728 2228 728 
Q 2613 728 2778 1090 
Q 2944 1453 2944 2338 
z
M 4147 2328 
Q 4147 1169 3647 539 
Q 3147 -91 2228 -91 
Q 1306 -91 806 539 
Q 306 1169 306 2328 
Q 306 3491 806 4120 
Q 1306 4750 2228 4750 
Q 3147 4750 3647 4120 
Q 4147 3491 4147 2328 
z
" transform="scale(0.015625)"/>
      <path id="DejaVuSans-Bold-f" d="M 653 1209 
L 1778 1209 
L 1778 256 
L 1006 -909 
L 341 -909 
L 653 256 
L 653 1209 
z
" transform="scale(0.015625)"/>
      <path id="DejaVuSans-Bold-14" d="M 750 831 
L 1813 831 
L 1813 3847 
L 722 3622 
L 722 4441 
L 1806 4666 
L 2950 4666 
L 2950 831 
L 4013 831 
L 4013 0 
L 750 0 
L 750 831 
z
" transform="scale(0.015625)"/>
      <path id="DejaVuSans-Bold-c" d="M 513 -844 
Q 913 -100 1113 609 
Q 1313 1319 1313 2009 
Q 1313 2700 1113 3408 
Q 913 4116 513 4856 
L 1441 4856 
Q 1916 4091 2145 3389 
Q 2375 2688 2375 2003 
Q 2375 1319 2147 623 
Q 1919 -72 1441 -844 
L 513 -844 
z
" transform="scale(0.015625)"/>
      <path id="DejaVuSans-Bold-1d" d="M 716 3500 
L 1844 3500 
L 1844 2291 
L 716 2291 
L 716 3500 
z
M 716 1209 
L 1844 1209 
L 1844 0 
L 716 0 
L 716 1209 
z
" transform="scale(0.015625)"/>
      <path id="DejaVuSans-Bold-53" d="M 1656 506 
L 1656 -1331 
L 538 -1331 
L 538 3500 
L 1656 3500 
L 1656 2988 
Q 1888 3294 2169 3439 
Q 2450 3584 2816 3584 
Q 3463 3584 3878 3070 
Q 4294 2556 4294 1747 
Q 4294 938 3878 423 
Q 3463 -91 2816 -91 
Q 2450 -91 2169 54 
Q 1888 200 1656 506 
z
M 2400 2772 
Q 2041 2772 1848 2508 
Q 1656 2244 1656 1747 
Q 1656 1250 1848 986 
Q 2041 722 2400 722 
Q 2759 722 2948 984 
Q 3138 1247 3138 1747 
Q 3138 2247 2948 2509 
Q 2759 2772 2400 2772 
z
" transform="scale(0.015625)"/>
      <path id="DejaVuSans-Bold-10" d="M 347 2297 
L 2309 2297 
L 2309 1388 
L 347 1388 
L 347 2297 
z
" transform="scale(0.015625)"/>
      <path id="DejaVuSans-Bold-29" d="M 588 4666 
L 3834 4666 
L 3834 3756 
L 1791 3756 
L 1791 2888 
L 3713 2888 
L 3713 1978 
L 1791 1978 
L 1791 0 
L 588 0 
L 588 4666 
z
" transform="scale(0.015625)"/>
      <path id="DejaVuSans-Bold-4e" d="M 538 4863 
L 1656 4863 
L 1656 2216 
L 2944 3500 
L 4244 3500 
L 2534 1894 
L 4378 0 
L 3022 0 
L 1656 1459 
L 1656 0 
L 538 0 
L 538 4863 
z
" transform="scale(0.015625)"/>
      <path id="DejaVuSans-Bold-c1e" d="M 313 1788 
L 313 2225 
L 1541 3453 
L 1994 3000 
L 1375 2381 
L 3988 2381 
L 3369 3000 
L 3822 3453 
L 5050 2225 
L 5050 1788 
L 3822 559 
L 3369 1013 
L 3988 1631 
L 1375 1631 
L 1994 1013 
L 1541 559 
L 313 1788 
z
" transform="scale(0.015625)"/>
      <path id="DejaVuSans-Bold-54" d="M 2181 2772 
Q 1825 2772 1636 2509 
Q 1447 2247 1447 1747 
Q 1447 1247 1636 984 
Q 1825 722 2181 722 
Q 2541 722 2730 984 
Q 2919 1247 2919 1747 
Q 2919 2247 2730 2509 
Q 2541 2772 2181 2772 
z
M 2919 506 
Q 2688 197 2409 53 
Q 2131 -91 1766 -91 
Q 1119 -91 703 423 
Q 288 938 288 1747 
Q 288 2556 703 3067 
Q 1119 3578 1766 3578 
Q 2131 3578 2409 3434 
Q 2688 3291 2919 2981 
L 2919 3500 
L 4044 3500 
L 4044 -1331 
L 2919 -1331 
L 2919 506 
z
" transform="scale(0.015625)"/>
     </defs>
     <use xlink:href="#DejaVuSans-Bold-36"/>
     <use xlink:href="#DejaVuSans-Bold-57" transform="translate(72.015625 0)"/>
     <use xlink:href="#DejaVuSans-Bold-44" transform="translate(119.8125 0)"/>
     <use xlink:href="#DejaVuSans-Bold-51" transform="translate(187.296875 0)"/>
     <use xlink:href="#DejaVuSans-Bold-47" transform="translate(258.484375 0)"/>
     <use xlink:href="#DejaVuSans-Bold-44" transform="translate(330.0625 0)"/>
     <use xlink:href="#DejaVuSans-Bold-55" transform="translate(397.546875 0)"/>
     <use xlink:href="#DejaVuSans-Bold-47" transform="translate(446.859375 0)"/>
     <use xlink:href="#DejaVuSans-Bold-51" transform="translate(518.4375 0)"/>
     <use xlink:href="#DejaVuSans-Bold-52" transform="translate(589.625 0)"/>
     <use xlink:href="#DejaVuSans-Bold-55" transform="translate(658.328125 0)"/>
     <use xlink:href="#DejaVuSans-Bold-50" transform="translate(707.640625 0)"/>
     <use xlink:href="#DejaVuSans-Bold-44" transform="translate(811.84375 0)"/>
     <use xlink:href="#DejaVuSans-Bold-4f" transform="translate(879.328125 0)"/>
     <use xlink:href="#DejaVuSans-Bold-59" transform="translate(913.609375 0)"/>
     <use xlink:href="#DejaVuSans-Bold-48" transform="translate(978.796875 0)"/>
     <use xlink:href="#DejaVuSans-Bold-55" transform="translate(1046.625 0)"/>
     <use xlink:href="#DejaVuSans-Bold-57" transform="translate(1095.9375 0)"/>
     <use xlink:href="#DejaVuSans-Bold-48" transform="translate(1143.734375 0)"/>
     <use xlink:href="#DejaVuSans-Bold-4c" transform="translate(1211.5625 0)"/>
     <use xlink:href="#DejaVuSans-Bold-4f" transform="translate(1245.84375 0)"/>
     <use xlink:href="#DejaVuSans-Bold-58" transform="translate(1280.125 0)"/>
     <use xlink:href="#DejaVuSans-Bold-51" transform="translate(1351.3125 0)"/>
     <use xlink:href="#DejaVuSans-Bold-4a" transform="translate(1422.5 0)"/>
     <use xlink:href="#DejaVuSans-Bold-3" transform="translate(1494.078125 0)"/>
     <use xlink:href="#DejaVuSans-Bold-31" transform="translate(1528.890625 0)"/>
     <use xlink:href="#DejaVuSans-Bold-b" transform="translate(1612.578125 0)"/>
     <use xlink:href="#DejaVuSans-Bold-13" transform="translate(1658.28125 0)"/>
     <use xlink:href="#DejaVuSans-Bold-f" transform="translate(1727.859375 0)"/>
     <use xlink:href="#DejaVuSans-Bold-3" transform="translate(1765.84375 0)"/>
     <use xlink:href="#DejaVuSans-Bold-14" transform="translate(1800.65625 0)"/>
     <use xlink:href="#DejaVuSans-Bold-c" transform="translate(1870.234375 0)"/>
     <use xlink:href="#DejaVuSans-Bold-1d" transform="translate(1915.9375 0)"/>
     <use xlink:href="#DejaVuSans-Bold-3" transform="translate(1955.921875 0)"/>
     <use xlink:href="#DejaVuSans-Bold-53" transform="translate(1990.734375 0)"/>
     <use xlink:href="#DejaVuSans-Bold-10" transform="translate(2062.3125 0)"/>
     <use xlink:href="#DejaVuSans-Bold-29" transform="translate(2103.8125 0)"/>
     <use xlink:href="#DejaVuSans-Bold-58" transform="translate(2167.140625 0)"/>
     <use xlink:href="#DejaVuSans-Bold-51" transform="translate(2238.328125 0)"/>
     <use xlink:href="#DejaVuSans-Bold-4e" transform="translate(2309.515625 0)"/>
     <use xlink:href="#DejaVuSans-Bold-57" transform="translate(2376.015625 0)"/>
     <use xlink:href="#DejaVuSans-Bold-4c" transform="translate(2423.8125 0)"/>
     <use xlink:href="#DejaVuSans-Bold-52" transform="translate(2458.09375 0)"/>
     <use xlink:href="#DejaVuSans-Bold-51" transform="translate(2526.796875 0)"/>
     <use xlink:href="#DejaVuSans-Bold-3" transform="translate(2597.984375 0)"/>
     <use xlink:href="#DejaVuSans-Bold-c1e" transform="translate(2632.796875 0)"/>
     <use xlink:href="#DejaVuSans-Bold-3" transform="translate(2716.59375 0)"/>
     <use xlink:href="#DejaVuSans-Bold-54" transform="translate(2751.40625 0)"/>
     <use xlink:href="#DejaVuSans-Bold-10" transform="translate(2822.984375 0)"/>
     <use xlink:href="#DejaVuSans-Bold-29" transform="translate(2864.484375 0)"/>
     <use xlink:href="#DejaVuSans-Bold-58" transform="translate(2927.8125 0)"/>
     <use xlink:href="#DejaVuSans-Bold-51" transform="translate(2999 0)"/>
     <use xlink:href="#DejaVuSans-Bold-4e" transform="translate(3070.1875 0)"/>
     <use xlink:href="#DejaVuSans-Bold-57" transform="translate(3136.6875 0)"/>
     <use xlink:href="#DejaVuSans-Bold-4c" transform="translate(3184.484375 0)"/>
     <use xlink:href="#DejaVuSans-Bold-52" transform="translate(3218.765625 0)"/>
     <use xlink:href="#DejaVuSans-Bold-51" transform="translate(3287.46875 0)"/>
    </g>
   </g>
  </g>
 </g>
 <defs>
  <clipPath id="pe2ac03ae9d">
   <rect x="7.2" y="21.178359" width="439.2" height="120.222461"/>
  </clipPath>
 </defs>
</svg>
